<svg xmlns="http://www.w3.org/2000/svg" viewBox="0 0 800 410" fill="none" font-family="PingFang SC,Inter,system-ui,sans-serif">
  <rect x="20" y="20" width="760" height="60" rx="8" fill="#f5f5f5" stroke="#eaeaea"/>
  <text x="40" y="40" font-size="11" font-weight="600" fill="#111">用户入口</text>
  <rect x="40" y="48" width="100" height="24" rx="6" fill="#fff" stroke="#eaeaea"/>
  <text x="90" y="64" text-anchor="middle" font-size="10" fill="#555">私聊</text>
  <rect x="155" y="48" width="100" height="24" rx="6" fill="#fff" stroke="#eaeaea"/>
  <text x="205" y="64" text-anchor="middle" font-size="10" fill="#555">群聊 @</text>
  <rect x="270" y="48" width="100" height="24" rx="6" fill="#fff" stroke="#eaeaea"/>
  <text x="320" y="64" text-anchor="middle" font-size="10" fill="#555">话题回复</text>
  <rect x="385" y="48" width="100" height="24" rx="6" fill="#fff" stroke="#eaeaea"/>
  <text x="435" y="64" text-anchor="middle" font-size="10" fill="#555">CLI</text>
  <rect x="20" y="92" width="760" height="48" rx="8" fill="#f5f5f5" stroke="#eaeaea"/>
  <text x="40" y="111" font-size="11" font-weight="600" fill="#111">消息处理层</text>
  <text x="40" y="126" font-size="10" fill="#555">路由 · 历史 · 卡片渲染 · 反馈 · 埋点</text>
  <rect x="20" y="152" width="760" height="72" rx="8" fill="#f5f5f5" stroke="#eaeaea"/>
  <text x="40" y="171" font-size="11" font-weight="600" fill="#111">Agent 核心 (Claude Code SDK)</text>
  <rect x="40" y="180" width="115" height="28" rx="6" fill="#fff" stroke="#eaeaea"/>
  <text x="97" y="198" text-anchor="middle" font-size="10" fill="#555">System Prompt</text>
  <rect x="170" y="180" width="100" height="28" rx="6" fill="#fff" stroke="#eaeaea"/>
  <text x="220" y="198" text-anchor="middle" font-size="10" fill="#555">Skill 路由</text>
  <rect x="285" y="180" width="100" height="28" rx="6" fill="#fff" stroke="#eaeaea"/>
  <text x="335" y="198" text-anchor="middle" font-size="10" fill="#555">会话管理</text>
  <rect x="400" y="180" width="100" height="28" rx="6" fill="#fff" stroke="#eaeaea"/>
  <text x="450" y="198" text-anchor="middle" font-size="10" fill="#555">截图识别</text>
  <rect x="515" y="180" width="105" height="28" rx="6" fill="#fff" stroke="#eaeaea"/>
  <text x="567" y="198" text-anchor="middle" font-size="10" fill="#555">文件回传</text>
  <rect x="635" y="180" width="100" height="28" rx="6" fill="#fff" stroke="#eaeaea"/>
  <text x="685" y="198" text-anchor="middle" font-size="10" fill="#555">OAuth</text>
  <rect x="20" y="236" width="760" height="56" rx="8" fill="#f5f5f5" stroke="#eaeaea"/>
  <text x="40" y="255" font-size="11" font-weight="600" fill="#111">Skills</text>
  <rect x="40" y="264" width="100" height="22" rx="6" fill="#fff" stroke="#eaeaea"/>
  <text x="90" y="279" text-anchor="middle" font-size="10" fill="#555">idp-debug</text>
  <rect x="155" y="264" width="100" height="22" rx="6" fill="#fff" stroke="#eaeaea"/>
  <text x="205" y="279" text-anchor="middle" font-size="10" fill="#555">自然语言查询</text>
  <rect x="270" y="264" width="100" height="22" rx="6" fill="#fff" stroke="#eaeaea"/>
  <text x="320" y="279" text-anchor="middle" font-size="10" fill="#555">专家 Skill</text>
  <rect x="385" y="264" width="100" height="22" rx="6" fill="#fff" stroke="#eaeaea"/>
  <text x="435" y="279" text-anchor="middle" font-size="10" fill="#555">数据分析</text>
  <rect x="500" y="264" width="100" height="22" rx="6" fill="#fff" stroke="#eaeaea"/>
  <text x="550" y="279" text-anchor="middle" font-size="10" fill="#555">表格处理</text>
  <rect x="615" y="264" width="100" height="22" rx="6" fill="#fff" stroke="#eaeaea"/>
  <text x="665" y="279" text-anchor="middle" font-size="10" fill="#555">UIPuff</text>
  <rect x="20" y="304" width="370" height="88" rx="8" fill="#f5f5f5" stroke="#eaeaea"/>
  <text x="40" y="323" font-size="11" font-weight="600" fill="#111">数据 &amp; 知识</text>
  <rect x="40" y="332" width="105" height="22" rx="6" fill="#fff" stroke="#eaeaea"/>
  <text x="92" y="347" text-anchor="middle" font-size="10" fill="#555">数仓</text>
  <rect x="155" y="332" width="95" height="22" rx="6" fill="#fff" stroke="#eaeaea"/>
  <text x="202" y="347" text-anchor="middle" font-size="10" fill="#555">操作手册</text>
  <rect x="260" y="332" width="105" height="22" rx="6" fill="#fff" stroke="#eaeaea"/>
  <text x="312" y="347" text-anchor="middle" font-size="10" fill="#555">业务源码</text>
  <rect x="40" y="360" width="105" height="22" rx="6" fill="#fff" stroke="#eaeaea"/>
  <text x="92" y="375" text-anchor="middle" font-size="10" fill="#555">飞书文档</text>
  <rect x="155" y="360" width="95" height="22" rx="6" fill="#fff" stroke="#eaeaea"/>
  <text x="202" y="375" text-anchor="middle" font-size="10" fill="#555">MVPS 分类表</text>
  <rect x="410" y="304" width="370" height="88" rx="8" fill="#f5f5f5" stroke="#eaeaea"/>
  <text x="430" y="323" font-size="11" font-weight="600" fill="#111">基础设施</text>
  <rect x="430" y="332" width="100" height="22" rx="6" fill="#fff" stroke="#eaeaea"/>
  <text x="480" y="347" text-anchor="middle" font-size="10" fill="#555">Matrix (CI/CD)</text>
  <rect x="545" y="332" width="80" height="22" rx="6" fill="#fff" stroke="#eaeaea"/>
  <text x="585" y="347" text-anchor="middle" font-size="10" fill="#555">Docker</text>
  <rect x="640" y="332" width="80" height="22" rx="6" fill="#fff" stroke="#eaeaea"/>
  <text x="680" y="347" text-anchor="middle" font-size="10" fill="#555">Redis</text>
  <rect x="430" y="360" width="100" height="22" rx="6" fill="#fff" stroke="#eaeaea"/>
  <text x="480" y="375" text-anchor="middle" font-size="10" fill="#555">OneTrack</text>
  <rect x="545" y="360" width="100" height="22" rx="6" fill="#fff" stroke="#eaeaea"/>
  <text x="595" y="375" text-anchor="middle" font-size="10" fill="#555">数鲸 BI</text>
</svg>
