<svg xmlns="http://www.w3.org/2000/svg" viewBox="0 0 700 440" fill="none" font-family="Inter,system-ui,sans-serif">
  <!-- Title -->
  <text x="350" y="30" text-anchor="middle" font-size="13" font-weight="600" fill="#111">IDP-Debug Skill — Problem Processing Flow</text>

  <!-- Step 1: User Report -->
  <rect x="250" y="50" width="200" height="44" rx="8" fill="#f5f5f5" stroke="#eaeaea"/>
  <text x="350" y="76" text-anchor="middle" font-size="11" fill="#555">User Reports Issue</text>
  <text x="350" y="89" text-anchor="middle" font-size="9" fill="#999">Bug / Data Anomaly / Button Missing</text>
  <line x1="350" y1="94" x2="350" y2="114" stroke="#d0d0d0" stroke-width="1"/>

  <!-- Step 2: Info Collection -->
  <rect x="215" y="114" width="270" height="44" rx="8" fill="#f5f5f5" stroke="#eaeaea"/>
  <text x="350" y="134" text-anchor="middle" font-size="11" font-weight="500" fill="#111">Step 1 — Collect Key Info</text>
  <text x="350" y="148" text-anchor="middle" font-size="9" fill="#555">Page URL · User Role · Error Screenshot · Steps to Reproduce</text>
  <line x1="350" y1="158" x2="350" y2="178" stroke="#d0d0d0" stroke-width="1"/>

  <!-- Step 3: Classify -->
  <rect x="250" y="178" width="200" height="40" rx="8" fill="#f5f5f5" stroke="#eaeaea"/>
  <text x="350" y="202" text-anchor="middle" font-size="11" font-weight="500" fill="#111">Step 2 — Classify Issue</text>
  <line x1="350" y1="218" x2="350" y2="238" stroke="#d0d0d0" stroke-width="1"/>

  <!-- 3 branches -->
  <!-- Left: Frontend -->
  <rect x="30" y="238" width="170" height="50" rx="8" fill="#f5f5f5" stroke="#eaeaea"/>
  <text x="115" y="258" text-anchor="middle" font-size="10" font-weight="500" fill="#111">Step 3a — Frontend</text>
  <text x="115" y="272" text-anchor="middle" font-size="8.5" fill="#555">Component · Permission · Route</text>

  <!-- Center: Backend -->
  <rect x="265" y="238" width="170" height="50" rx="8" fill="#f5f5f5" stroke="#eaeaea"/>
  <text x="350" y="258" text-anchor="middle" font-size="10" font-weight="500" fill="#111">Step 3b — Backend</text>
  <text x="350" y="272" text-anchor="middle" font-size="8.5" fill="#555">API · Logic · BPM Flow</text>

  <!-- Right: Data -->
  <rect x="500" y="238" width="170" height="50" rx="8" fill="#f5f5f5" stroke="#eaeaea"/>
  <text x="585" y="258" text-anchor="middle" font-size="10" font-weight="500" fill="#111">Step 3c — Data Layer</text>
  <text x="585" y="272" text-anchor="middle" font-size="8.5" fill="#555">DB Record · Sync Status</text>

  <!-- Lines from classify to branches -->
  <line x1="310" y1="218" x2="115" y2="238" stroke="#d0d0d0" stroke-width="1"/>
  <line x1="350" y1="218" x2="350" y2="238" stroke="#d0d0d0" stroke-width="1"/>
  <line x1="390" y1="218" x2="585" y2="238" stroke="#d0d0d0" stroke-width="1"/>

  <!-- Lines from branches down to Step 4 -->
  <line x1="115" y1="288" x2="115" y2="308" stroke="#d0d0d0" stroke-width="1"/>
  <line x1="350" y1="288" x2="350" y2="308" stroke="#d0d0d0" stroke-width="1"/>
  <line x1="585" y1="288" x2="585" y2="308" stroke="#d0d0d0" stroke-width="1"/>

  <!-- Step 4: Root Cause -->
  <rect x="230" y="308" width="240" height="44" rx="8" fill="#f5f5f5" stroke="#eaeaea"/>
  <text x="350" y="328" text-anchor="middle" font-size="11" font-weight="500" fill="#111">Step 4 — Identify Root Cause</text>
  <text x="350" y="342" text-anchor="middle" font-size="9" fill="#555">Trace across layers · pinpoint exact issue</text>
  <line x1="350" y1="352" x2="350" y2="372" stroke="#d0d0d0" stroke-width="1"/>

  <!-- Step 5: Solution -->
  <rect x="230" y="372" width="240" height="44" rx="8" fill="#f5f5f5" stroke="#eaeaea"/>
  <text x="350" y="392" text-anchor="middle" font-size="11" font-weight="500" fill="#111">Step 5 — Provide Solution</text>
  <text x="350" y="406" text-anchor="middle" font-size="9" fill="#555">Fix suggestion · Manual link · Escalation</text>

  <!-- Step 6 label -->
  <rect x="250" y="424" width="200" height="14" rx="4" fill="#e8e8e8"/>
  <text x="350" y="434" text-anchor="middle" font-size="8" fill="#888">Step 6 — Feedback Loop · Learning</text>
</svg>
