<svg xmlns="http://www.w3.org/2000/svg" viewBox="0 0 700 465" fill="none" font-family="PingFang SC,Inter,system-ui,sans-serif">
  <text x="350" y="28" text-anchor="middle" font-size="11" font-weight="500" fill="#999">IDP-Debug Skill — 问题处理流程</text>

  <rect x="250" y="46" width="200" height="40" rx="8" fill="#f5f5f5" stroke="#eaeaea"/>
  <text x="350" y="70" text-anchor="middle" font-size="10" fill="#555">用户上报问题</text>
  <line x1="350" y1="86" x2="350" y2="102" stroke="#d0d0d0" stroke-width="1"/>
  <polygon points="347,102 353,102 350,107" fill="#d0d0d0"/>

  <rect x="215" y="107" width="270" height="40" rx="8" fill="#f5f5f5" stroke="#eaeaea"/>
  <text x="350" y="125" text-anchor="middle" font-size="10" font-weight="500" fill="#111">Step 1 — 收集关键信息</text>
  <text x="350" y="139" text-anchor="middle" font-size="8.5" fill="#999">页面 URL · 用户角色 · 错误截图 · 复现步骤</text>
  <line x1="350" y1="147" x2="350" y2="163" stroke="#d0d0d0" stroke-width="1"/>
  <polygon points="347,163 353,163 350,168" fill="#d0d0d0"/>

  <rect x="260" y="168" width="180" height="36" rx="8" fill="#f5f5f5" stroke="#eaeaea"/>
  <text x="350" y="190" text-anchor="middle" font-size="10" font-weight="500" fill="#111">Step 2 — 问题分类</text>

  <line x1="310" y1="204" x2="115" y2="222" stroke="#d0d0d0" stroke-width="1"/>
  <polygon points="117,219 113,225 111,219" fill="#d0d0d0"/>
  <line x1="350" y1="204" x2="350" y2="222" stroke="#d0d0d0" stroke-width="1"/>
  <polygon points="347,222 353,222 350,227" fill="#d0d0d0"/>
  <line x1="390" y1="204" x2="585" y2="222" stroke="#d0d0d0" stroke-width="1"/>
  <polygon points="583,219 587,225 589,219" fill="#d0d0d0"/>

  <rect x="30" y="222" width="170" height="46" rx="8" fill="#f5f5f5" stroke="#eaeaea"/>
  <text x="115" y="241" text-anchor="middle" font-size="10" font-weight="500" fill="#111">Step 3a — 前端排查</text>
  <text x="115" y="255" text-anchor="middle" font-size="8.5" fill="#555">组件 · 权限 · 路由</text>

  <rect x="265" y="222" width="170" height="46" rx="8" fill="#f5f5f5" stroke="#eaeaea"/>
  <text x="350" y="241" text-anchor="middle" font-size="10" font-weight="500" fill="#111">Step 3b — 后端排查</text>
  <text x="350" y="255" text-anchor="middle" font-size="8.5" fill="#555">接口 · 逻辑 · BPM 流程</text>

  <rect x="500" y="222" width="170" height="46" rx="8" fill="#f5f5f5" stroke="#eaeaea"/>
  <text x="585" y="241" text-anchor="middle" font-size="10" font-weight="500" fill="#111">Step 3c — 数据层排查</text>
  <text x="585" y="255" text-anchor="middle" font-size="8.5" fill="#555">数据库记录 · 同步状态</text>

  <!-- Curved arrows from Step 3 branches to Step 4 -->
  <path d="M115,268 C115,290 250,290 330,298" stroke="#d0d0d0" stroke-width="1" fill="none"/>
  <polygon points="327,295 333,295 330,301" fill="#d0d0d0"/>

  <line x1="350" y1="268" x2="350" y2="298" stroke="#d0d0d0" stroke-width="1"/>
  <polygon points="347,298 353,298 350,303" fill="#d0d0d0"/>

  <path d="M585,268 C585,290 450,290 370,298" stroke="#d0d0d0" stroke-width="1" fill="none"/>
  <polygon points="367,295 373,295 370,301" fill="#d0d0d0"/>

  <rect x="230" y="303" width="240" height="40" rx="8" fill="#f5f5f5" stroke="#eaeaea"/>
  <text x="350" y="321" text-anchor="middle" font-size="10" font-weight="500" fill="#111">Step 4 — 定位根因</text>
  <text x="350" y="335" text-anchor="middle" font-size="8.5" fill="#555">跨层追踪 · 精确定位问题点</text>
  <line x1="350" y1="343" x2="350" y2="359" stroke="#d0d0d0" stroke-width="1"/>
  <polygon points="347,359 353,359 350,364" fill="#d0d0d0"/>

  <rect x="230" y="364" width="240" height="40" rx="8" fill="#f5f5f5" stroke="#eaeaea"/>
  <text x="350" y="382" text-anchor="middle" font-size="10" font-weight="500" fill="#111">Step 5 — 给出解决方案</text>
  <text x="350" y="396" text-anchor="middle" font-size="8.5" fill="#555">修复建议 · 手册链接 · 升级处理</text>

  <rect x="230" y="414" width="240" height="40" rx="8" fill="#f5f5f5" stroke="#eaeaea"/>
  <text x="350" y="432" text-anchor="middle" font-size="10" font-weight="500" fill="#111">Step 6 — 反馈闭环 · 持续学习</text>
</svg>
